<svg xmlns="http://www.w3.org/2000/svg" width="31.446" height="31.446" viewBox="0 0 31.446 31.446"><path d="M206.831-125.937a2.911,2.911,0,0,0-2.908,2.909,2.911,2.911,0,0,0,2.908,2.908,2.911,2.911,0,0,0,2.908-2.908A2.911,2.911,0,0,0,206.831-125.937Z" transform="translate(-191.032 138.729)"/><path d="M210.761-130.191H203.4a3.806,3.806,0,0,0-3.8,3.8v7.361a3.807,3.807,0,0,0,3.8,3.8h7.361a3.808,3.808,0,0,0,3.8-3.8v-7.361A3.807,3.807,0,0,0,210.761-130.191Zm-3.6,12.023a4.545,4.545,0,0,1-4.54-4.54,4.545,4.545,0,0,1,4.54-4.54,4.545,4.545,0,0,1,4.54,4.54A4.545,4.545,0,0,1,207.157-118.168Zm4.8-8.3a1.081,1.081,0,0,1-1.081-1.081,1.081,1.081,0,0,1,1.081-1.081,1.081,1.081,0,0,1,1.081,1.081A1.081,1.081,0,0,1,211.961-126.473Z" transform="translate(-191.358 138.409)"/><path d="M207.659-137.833a15.723,15.723,0,0,0-15.724,15.722,15.724,15.724,0,0,0,15.724,15.724,15.723,15.723,0,0,0,15.722-15.724A15.722,15.722,0,0,0,207.659-137.833Zm9.217,19.381a5.543,5.543,0,0,1-5.537,5.537h-7.361a5.543,5.543,0,0,1-5.537-5.537v-7.361a5.543,5.543,0,0,1,5.537-5.537h7.361a5.543,5.543,0,0,1,5.537,5.537Z" transform="translate(-191.935 137.833)"/></svg>