<svg xmlns="http://www.w3.org/2000/svg" width="31.446" height="31.446" viewBox="0 0 31.446 31.446"><path d="M294.356-137.833a15.722,15.722,0,0,0-15.722,15.722,15.723,15.723,0,0,0,15.722,15.724,15.724,15.724,0,0,0,15.724-15.724A15.723,15.723,0,0,0,294.356-137.833Zm5.681,18.43c-1.953,2.422-5.117,2.582-6.577,1.1a4.872,4.872,0,0,1-.313-.384c-.016.055-.031.1-.043.147-.7,2.746-.779,3.356-1.5,4.631a14.349,14.349,0,0,1-1.158,1.73c-.048.062-.094.142-.19.123s-.114-.117-.126-.2a14.78,14.78,0,0,1-.151-2.513c.037-1.1.172-1.474,1.586-7.423a.409.409,0,0,0-.032-.248,4.182,4.182,0,0,1-.11-2.78c.64-2.029,2.94-2.185,3.342-.511.248,1.036-.408,2.39-.911,4.394-.416,1.653,1.529,2.827,3.192,1.621,1.533-1.112,2.128-3.778,2.015-5.668-.223-3.767-4.354-4.582-6.976-3.368-3,1.389-3.687,5.114-2.331,6.815.172.217.305.349.248.569-.088.341-.165.684-.259,1.024a.362.362,0,0,1-.536.24,3.065,3.065,0,0,1-1.255-.94,5.947,5.947,0,0,1,.041-6.638,7.975,7.975,0,0,1,7.694-3.393,6.514,6.514,0,0,1,5.992,5.382A8.956,8.956,0,0,1,300.037-119.4Z" transform="translate(-278.634 137.833)"/></svg>