<svg xmlns="http://www.w3.org/2000/svg" width="33.376" height="33.376" viewBox="0 0 33.376 33.376"><path d="M227.076-54.727a16.688,16.688,0,0,0-16.687,16.689,16.687,16.687,0,0,0,16.687,16.688,16.688,16.688,0,0,0,16.689-16.687A16.689,16.689,0,0,0,227.076-54.727Zm8.67,14.765h0c-.171.016-.342.025-.514.026a5.577,5.577,0,0,1-4.666-2.522v8.587a6.346,6.346,0,0,1-6.347,6.346,6.345,6.345,0,0,1-6.346-6.346,6.346,6.346,0,0,1,6.346-6.347c.132,0,.262.013.393.021v3.127a3.176,3.176,0,0,0-.393-.04,3.24,3.24,0,0,0-3.239,3.239,3.239,3.239,0,0,0,3.239,3.239,3.319,3.319,0,0,0,3.37-3.2l.031-14.584h2.991a5.573,5.573,0,0,0,5.137,4.975Z" transform="translate(-210.389 54.727)"/></svg>