<svg xmlns="http://www.w3.org/2000/svg" width="31.445" height="31.446" viewBox="0 0 31.445 31.446"><path d="M251.007-137.833a15.722,15.722,0,0,0-15.722,15.722,15.723,15.723,0,0,0,15.722,15.724,15.723,15.723,0,0,0,15.722-15.724A15.722,15.722,0,0,0,251.007-137.833Zm8.758,10.35a.437.437,0,0,1-.09.273,6.844,6.844,0,0,1-1.371,1.426c-.077.058-.209.119-.209.23a10.57,10.57,0,0,1-2.787,7.71,10.375,10.375,0,0,1-10.073,2.356,9.579,9.579,0,0,1-1.947-.78c-.206-.113-.409-.229-.608-.36-.049-.04-.087-.077-.044-.1s.075-.023.232,0a6.865,6.865,0,0,0,2.913-.373,4.452,4.452,0,0,0,1.919-1.016c.006-.012.014-.012.023-.023-.128-.03-.256-.03-.383-.053a3.761,3.761,0,0,1-2.81-2.353c-.037-.094,0-.142.1-.124a4.028,4.028,0,0,0,1.337-.041,2.1,2.1,0,0,1-.453-.139,3.623,3.623,0,0,1-2.232-2.888,2.182,2.182,0,0,1-.023-.4c.008-.094.048-.124.131-.071a3.6,3.6,0,0,0,1.364.382c-.154-.119-.3-.251-.434-.382a3.584,3.584,0,0,1-.611-4.234c.068-.1.113-.1.195-.008a10.981,10.981,0,0,0,7.065,3.6c.075.011.083,0,.072-.083a3.77,3.77,0,0,1,.037-1.476,3.6,3.6,0,0,1,.7-1.4,3.759,3.759,0,0,1,1.169-.955,3.656,3.656,0,0,1,1.45-.409,3.453,3.453,0,0,1,1.528.246,3.638,3.638,0,0,1,1,.61,1.721,1.721,0,0,1,.18.184.137.137,0,0,0,.142.038,8.854,8.854,0,0,0,2.056-.787.1.1,0,0,1,.093-.008c.029.023.018.06,0,.09a3.191,3.191,0,0,1-.575,1.05c-.165.2-.574.71-.853.756a7.107,7.107,0,0,0,1.734-.495c.069-.031.07-.045.07,0Z" transform="translate(-235.285 137.833)"/></svg>